<svg width="24" height="24" viewBox="0 0 24 24" fill="none" xmlns="http://www.w3.org/2000/svg">
<g clip-path="url(#clip0_2010_405)">
<rect width="24" height="24" rx="12" fill="#4A709D"/>
<path d="M13.4 11.166V8.70206C13.4 8.14673 13.2943 8.0354 12.714 8.0354L11.069 8.00007C10.5566 8.00007 10.3004 8.00007 10.1968 8.15807C10.0932 8.31606 10.208 8.53273 10.4369 8.96473C10.5643 9.20472 10.6329 9.37872 10.6329 9.64805V11.4214C10.6329 11.9814 10.6329 12.262 10.4089 12.3454C10.1849 12.428 9.99939 12.24 9.627 11.864C8.717 10.9414 8.2424 9.78939 7.93091 8.5334C7.86651 8.2734 7.83431 8.1434 7.73771 8.0714C7.64111 7.9994 7.50321 8.00007 7.22881 8.00007H5.68882C5.35142 8.00007 5.18272 8.00007 5.07702 8.1134C4.97202 8.2274 4.99232 8.37273 5.03292 8.66273C5.40252 11.2807 7.81961 15.5733 12.2849 15.9827C13.0759 16.0547 13.4 15.8513 13.4 15.026C13.4 14.558 13.3895 13.802 14.0076 13.7027C14.3317 13.6507 14.5494 13.7607 14.9113 14.0493C15.5385 14.5507 15.8675 15.1627 16.0964 15.6273C16.2483 15.9353 16.361 16 16.718 16H18.1697C18.9033 16 19.1028 15.8293 18.7759 15.1733C18.4065 14.4376 17.8834 13.7814 17.2388 13.2447C16.7936 12.88 16.5717 12.698 16.5598 12.5634C16.5465 12.4294 16.7096 12.2394 17.0358 11.8594C17.6657 11.1247 18.5239 9.97205 18.9243 8.74873C19.1231 8.14207 18.9362 8.00007 18.2915 8.00007H16.9875C16.3554 8.00007 16.3561 7.9794 16.207 8.66206C15.9648 9.76939 15.1724 10.834 14.4276 11.5587C14.0741 11.9027 13.8606 12.11 13.6401 12.0254C13.4196 11.9407 13.4 11.6834 13.4 11.166Z" stroke="white" stroke-width="1.5" stroke-linecap="round" stroke-linejoin="round"/>
</g>
<defs>
<clipPath id="clip0_2010_405">
<rect width="24" height="24" fill="white"/>
</clipPath>
</defs>
</svg>
